<svg width="32" height="32" viewBox="0 0 32 32" fill="none" xmlns="http://www.w3.org/2000/svg">
<path d="M24.6549 21.0236L23.2649 22.1236C22.7549 22.5236 22.4149 23.1136 22.3249 23.7636L22.0649 25.5236C21.8249 27.1536 20.1249 28.1336 18.5949 27.5236L16.9449 26.8636C16.3349 26.6236 15.6649 26.6236 15.0549 26.8636L13.4049 27.5236C11.8749 28.1336 10.1749 27.1536 9.93494 25.5236L9.67494 23.7636C9.58494 23.1136 9.24494 22.5336 8.73494 22.1236L7.34494 21.0236C6.05494 20.0036 6.05494 18.0436 7.34494 17.0236L8.73494 15.9236C9.24494 15.5236 9.58494 14.9336 9.67494 14.2836L9.93494 12.5236C10.1749 10.8936 11.8749 9.91361 13.4049 10.5236L15.0549 11.1836C15.6649 11.4236 16.3349 11.4236 16.9449 11.1836L18.5949 10.5236C20.1249 9.91361 21.8249 10.8936 22.0649 12.5236L22.3249 14.2836C22.4149 14.9336 22.7549 15.5136 23.2649 15.9236L24.6549 17.0236C25.9449 18.0436 25.9449 20.0036 24.6549 21.0236Z" fill="black"/>
<path d="M15.9648 8.8337C17.2185 8.8337 18.2348 7.81739 18.2348 6.5637C18.2348 5.31001 17.2185 4.2937 15.9648 4.2937C14.7111 4.2937 13.6948 5.31001 13.6948 6.5637C13.6948 7.81739 14.7111 8.8337 15.9648 8.8337Z" fill="black"/>
</svg>
