<svg width="300" height="45" viewBox="0 0 300 45" fill="none" xmlns="http://www.w3.org/2000/svg">
<path d="M21.1808 44.1548C17.9705 44.1548 15.0738 43.6013 12.4908 42.4758C9.90775 41.3503 7.67528 39.8374 5.81181 37.9186C3.94834 35.9998 2.50922 33.7673 1.51292 31.2396C0.498155 28.712 0 26.0182 0 23.1954C0 20.3725 0.516605 17.568 1.56827 15.0035C2.61993 12.4573 4.05904 10.2433 5.90406 8.3614C7.74908 6.47949 9.94465 4.98502 12.4908 3.89646C15.0369 2.8079 17.8229 2.25439 20.8487 2.25439C22.9705 2.25439 24.9631 2.5127 26.8266 3.0293C28.69 3.54591 30.4059 4.26546 31.9926 5.18797C33.5793 6.11048 34.9815 7.19904 36.2362 8.49056C37.4908 9.78207 38.5424 11.1843 39.3911 12.7156L32.6937 16.7378C31.4207 14.3946 29.8155 12.6234 27.8598 11.4241C25.9041 10.2249 23.5793 9.63447 20.9041 9.63447C19.0037 9.63447 17.2509 10.0035 15.6273 10.723C14.0037 11.4426 12.583 12.4204 11.3838 13.6566C10.1661 14.8928 9.22509 16.3134 8.56089 17.9555C7.89668 19.5976 7.56458 21.3503 7.56458 23.2138C7.56458 25.0773 7.89668 26.8854 8.56089 28.5275C9.22509 30.1695 10.1661 31.6086 11.3838 32.8263C12.6015 34.0625 14.0406 35.0219 15.7196 35.723C17.3985 36.4241 19.2251 36.7931 21.1993 36.7931C24.2435 36.7931 26.7897 35.9998 28.8192 34.3946C30.8487 32.7894 32.2325 30.6492 32.9889 27.9739H19.9631V20.7046H41.1439V23.7304C41.1439 26.4795 40.6827 29.0994 39.7417 31.5717C38.8192 34.0441 37.4723 36.2212 35.7565 38.0847C34.0221 39.9481 31.9373 41.4241 29.4649 42.5311C27.0111 43.6197 24.2435 44.1732 21.1993 44.1732L21.1808 44.1548Z" fill="black"/>
<path d="M46.1993 2.25439H53.8007V43.6013H46.1993V2.25439Z" fill="black"/>
<path d="M95.0184 10.9075H102.731L109.945 33.4168L118.155 10.9075H125.646L133.69 33.4721L141.181 10.9075H148.838L137.38 43.5828H130.111L121.845 20.9629L113.358 43.5828H105.923L95.0184 10.9075Z" fill="black"/>
<path d="M162.399 10.0588V2.8079H191.845V10.0773H180.904V43.6013H173.303V10.0588H162.399Z" fill="black"/>
<path d="M203.782 44.2655C201.808 44.2655 199.871 43.878 197.952 43.1216C196.033 42.3651 194.317 41.2581 192.786 39.8005C191.255 38.343 190.037 36.5717 189.096 34.4684C188.155 32.3651 187.694 29.9666 187.694 27.2913C187.694 24.616 188.155 22.1621 189.059 20.0588C189.963 17.9555 191.181 16.1843 192.694 14.7267C194.207 13.2692 195.923 12.1621 197.86 11.4057C199.797 10.6492 201.808 10.2618 203.893 10.2618C205.978 10.2618 208.044 10.6677 209.871 11.4979C211.697 12.3097 213.21 13.4352 214.391 14.8559V10.9444H221.937V43.6197H214.391V39.3762C213.192 40.9075 211.679 42.1068 209.815 42.974C207.952 43.8411 205.941 44.2839 203.782 44.2839V44.2655ZM205.018 37.3282C206.402 37.3282 207.694 37.0699 208.893 36.5533C210.111 36.0367 211.144 35.2987 211.993 34.3762C212.841 33.4537 213.524 32.3651 214.041 31.1289C214.539 29.8928 214.797 28.5828 214.797 27.1621C214.797 25.7415 214.539 24.4869 214.041 23.2507C213.542 22.0145 212.86 20.9444 211.993 20.0404C211.144 19.1363 210.111 18.4168 208.893 17.8817C207.675 17.3651 206.384 17.1068 205.018 17.1068C203.653 17.1068 202.306 17.3651 201.107 17.8817C199.908 18.3983 198.875 19.1179 197.97 20.0035C197.085 20.8891 196.384 21.9592 195.867 23.1954C195.351 24.4315 195.111 25.7415 195.111 27.1621C195.111 28.5828 195.369 29.9112 195.867 31.1474C196.365 32.402 197.066 33.4721 197.97 34.3946C198.856 35.2987 199.908 36.0182 201.107 36.5533C202.306 37.0699 203.598 37.3282 205.018 37.3282Z" fill="black"/>
<path d="M226.255 2.25439H233.856V43.6013H226.255V2.25439Z" fill="black"/>
<path d="M254.41 44.2655C251.845 44.2655 249.502 43.8227 247.362 42.9555C245.221 42.0883 243.413 40.8706 241.919 39.3577C240.406 37.8264 239.244 36.0367 238.395 33.9703C237.546 31.9038 237.14 29.6898 237.14 27.3466C237.14 25.0035 237.583 22.7341 238.45 20.6492C239.317 18.5644 240.535 16.7562 242.048 15.2249C243.579 13.6935 245.369 12.4942 247.435 11.5902C249.502 10.6861 251.734 10.2433 254.114 10.2433C256.494 10.2433 258.782 10.6677 260.849 11.4979C262.915 12.3282 264.686 13.509 266.181 15.0219C267.675 16.5348 268.838 18.3061 269.668 20.354C270.498 22.402 270.922 24.6345 270.922 27.0514V29.8928H244.336C244.852 32.199 245.996 34.0625 247.749 35.4832C249.502 36.9038 251.716 37.6049 254.391 37.6049C256.513 37.6049 258.358 37.0883 259.926 36.0367C261.494 35.0035 262.657 33.6013 263.45 31.8485L269.649 35.4278C268.229 38.0662 266.255 40.2064 263.708 41.83C261.162 43.4537 258.063 44.2655 254.41 44.2655ZM254.133 16.8854C251.863 16.8854 249.889 17.4942 248.247 18.7304C246.605 19.9666 245.424 21.5717 244.76 23.5828H263.303C262.749 21.3872 261.66 19.7267 260.055 18.5828C258.45 17.4389 256.476 16.8854 254.133 16.8854Z" fill="black"/>
<path d="M286.587 44.2655C282.97 44.2655 279.982 43.5828 277.601 42.2175C275.221 40.8522 273.376 38.8965 272.066 36.3319L279.059 32.974C279.834 34.5053 280.904 35.6677 282.251 36.4979C283.598 37.3097 285.148 37.7341 286.937 37.7341C288.727 37.7341 290.203 37.3466 291.125 36.5533C292.048 35.7784 292.528 34.8374 292.528 33.7673C292.528 33.1769 292.306 32.6787 291.882 32.3097C291.458 31.9407 290.886 31.6086 290.203 31.3319C289.52 31.0551 288.708 30.8153 287.768 30.6308C286.845 30.4463 285.867 30.2433 284.871 30.0219C283.45 29.7636 282.066 29.4131 280.701 28.9887C279.336 28.5644 278.118 27.974 277.048 27.2544C275.959 26.5348 275.092 25.5939 274.428 24.4684C273.764 23.3245 273.413 21.9038 273.413 20.188C273.413 18.878 273.708 17.6234 274.299 16.4241C274.889 15.2249 275.756 14.1363 276.863 13.2138C277.989 12.2913 279.336 11.5533 280.904 10.9998C282.491 10.4647 284.262 10.188 286.236 10.188C289.52 10.188 292.251 10.7968 294.428 11.9961C296.605 13.2138 298.321 14.8559 299.594 16.9407L293.173 20.188C292.509 19.0256 291.568 18.1216 290.387 17.4573C289.207 16.7931 287.823 16.4426 286.255 16.4426C284.465 16.4426 283.137 16.7931 282.288 17.5127C281.439 18.2138 280.996 19.0441 280.996 19.9666C280.996 21.0551 281.624 21.8116 282.897 22.2913C284.17 22.7525 286.033 23.2507 288.487 23.7673C289.834 24.0625 291.181 24.4131 292.546 24.8374C293.911 25.2433 295.148 25.8153 296.255 26.5348C297.38 27.2544 298.284 28.1954 298.967 29.3208C299.649 30.4647 300 31.8854 300 33.6013C300 34.7636 299.742 35.9629 299.225 37.199C298.708 38.4537 297.897 39.5976 296.79 40.6677C295.683 41.7378 294.299 42.5865 292.62 43.2692C290.941 43.9334 288.93 44.2839 286.587 44.2839V44.2655Z" fill="black"/>
<path d="M79.5922 1.9998C80.0144 2.65594 80.2636 3.43415 80.2636 4.26832L80.2585 4.25815C80.2585 6.53684 78.4427 8.3832 76.1793 8.43915C76.0623 8.3425 75.9555 8.22552 75.8792 8.08819C75.691 7.75757 75.5943 7.56429 75.691 7.25402C74.9331 7.68636 74.5058 7.90508 74.221 8.0068C73.5547 7.67619 72.985 7.17264 72.5781 6.5521C72.6239 6.36391 72.7154 6.1808 72.8477 5.98751C72.6897 6.08329 72.5497 6.16104 72.4192 6.23348L72.395 6.24692C72.0746 5.6569 71.8915 4.98041 71.8915 4.26323C71.8915 1.94893 73.7683 0.0771484 76.0775 0.0771484C76.1996 0.0771484 76.3217 0.0873212 76.4387 0.0974939C76.3878 0.356899 76.1894 0.697686 75.7724 1.29279C76.5607 0.835018 77.0999 0.534922 77.4916 0.331467C78.3206 0.631563 79.0327 1.18089 79.5261 1.89807C79.4854 1.96416 79.4448 2.02517 79.3939 2.10142C79.4477 2.0707 79.4985 2.04587 79.5465 2.02237C79.562 2.01475 79.5773 2.00727 79.5922 1.9998Z" fill="url(#paint0_linear_438_1698)"/>
<path d="M93.5289 28.3777C93.6052 28.3981 93.6815 28.4286 93.7578 28.4642L93.773 28.4693C93.5238 29.4103 92.9897 30.2902 92.1454 30.9565L89.5717 32.986C88.6307 33.7286 88.0051 34.812 87.8321 36.0022L87.6846 37.0144C87.3995 37.2995 87.1046 37.5895 86.8046 37.8845L86.7894 37.8994C86.9471 37.8791 87.059 37.9045 87.2065 37.9452C87.3235 37.9757 87.4303 38.0266 87.5321 38.0876L87.3642 39.2473C87.2981 39.6847 87.1709 40.0967 87.0031 40.4782C86.9064 40.4884 86.8098 40.4884 86.7182 40.4782C86.8098 40.4884 86.9064 40.4986 86.998 40.4884C86.9933 40.499 86.9885 40.5099 86.9837 40.521C86.9679 40.5575 86.9514 40.5957 86.9319 40.6308C86.2503 41.0225 84.9736 41.7752 83.9716 42.3703C83.6199 42.5765 83.299 42.7664 83.0055 42.94C82.8066 43.0577 82.6203 43.1679 82.4457 43.2706C81.9523 43.2401 81.4538 43.1384 80.9655 42.9451L78.9666 42.1465C79.4396 41.6023 80.1822 40.8495 81.3216 39.7051C82.5423 38.4742 84.0631 36.9635 85.5789 35.463C84.0275 36.3735 82.4355 37.3094 81.0011 38.1537L80.9447 38.187C78.6117 39.5596 76.7883 40.6324 75.3604 41.465C75.0399 41.5158 74.7297 41.6023 74.4245 41.7244L71.3726 42.94C70.4825 43.2961 69.5619 43.3571 68.7023 43.1842C68.6616 42.94 68.7023 42.7111 68.8142 42.4975C68.6435 42.5927 68.4851 42.6832 68.3347 42.7691C68.2119 42.8393 68.0944 42.9065 67.98 42.9705C67.0136 42.6043 66.1795 41.9278 65.625 41.0275C66.1286 40.6257 66.7746 40.1171 67.5426 39.5169C69.3365 38.1098 71.7602 36.2293 74.3547 34.2161L74.7602 33.9015C74.9859 33.7259 75.2147 33.5488 75.4466 33.3693C75.6379 33.2213 75.8312 33.0716 76.0267 32.9199C68.2547 37.523 65.915 38.8557 64.9638 39.1761L64.5366 36.2158C64.9638 35.8496 65.5284 35.3664 66.2151 34.7866C67.321 33.853 68.721 32.6786 70.2736 31.3761C70.9203 30.8336 71.5936 30.2688 72.2831 29.69C73.8604 28.3663 75.6551 26.8605 77.4505 25.3542L77.4661 25.3412C69.6077 29.985 65.564 32.3705 63.387 33.5709C63.1988 33.3573 62.9903 33.1538 62.7614 32.9758L60.9964 31.5872C61.0142 31.5745 61.0308 31.5618 61.0473 31.5491C61.0638 31.5364 61.0804 31.5237 61.0982 31.5109C61.5363 31.1799 62.1048 30.7651 62.8127 30.2485L62.9089 30.1783C61.2202 31.104 61.0473 31.0633 60.6862 30.9667C60.3556 30.8802 60.0656 30.6615 59.8927 30.3614C59.3027 29.3391 60.1318 28.688 61.0931 27.9352C61.678 27.4774 62.5274 26.8315 63.56 26.0634C64.4145 25.4225 65.3962 24.6952 66.4592 23.9119C59.4416 28.0665 59.3485 28.042 58.7487 27.8845C58.6317 27.8539 58.5245 27.803 58.4227 27.7419C58.3312 26.8213 58.5092 25.8803 58.9568 25.0411C59.2976 24.7613 59.7503 24.3951 60.2996 23.9628C61.266 23.1947 62.502 22.2181 63.8601 21.15C63.8102 21.1455 63.7643 21.1328 63.7153 21.1193C63.7093 21.1177 63.7034 21.116 63.6973 21.1144C63.5752 21.0788 63.4633 21.0279 63.3565 20.9618C63.9669 20.2802 64.3687 19.4308 64.501 18.5153L64.974 15.2651C65.33 12.8083 67.4917 11.1502 69.8111 11.2417C69.7908 11.5266 69.5924 11.8775 69.0583 12.5693C69.923 12.0657 70.5486 11.7097 71.0115 11.4554C71.0251 11.4595 71.0388 11.4636 71.0525 11.4678C71.1568 11.4994 71.2642 11.5319 71.3676 11.5724L73.6208 12.4726C73.5496 12.6303 73.4326 12.8134 73.2343 13.0525C73.5089 12.8897 73.7531 12.7473 73.982 12.6151L74.4143 12.788C75.513 13.2305 76.7388 13.2305 77.8425 12.8083C77.7459 13.3628 77.1813 13.8409 76.4336 14.4614C75.8334 14.9548 74.984 15.6414 73.982 16.44C74.238 16.2894 74.4866 16.1413 74.729 15.9968C74.9778 15.8486 75.22 15.7043 75.457 15.5652C79.4498 13.2 81.6522 11.9233 82.9289 11.2468C84.0123 11.3028 85.0346 11.73 85.8281 12.4421C85.5687 12.8846 85.0499 13.3017 84.4294 13.79C83.763 14.319 82.8017 15.0514 81.4844 16.0382C81.3589 16.1316 81.2316 16.2265 81.1023 16.3228C80.7599 16.578 80.404 16.8432 80.0347 17.1165C84.9685 14.2325 85.1211 14.2681 85.6552 14.4105C85.9858 14.497 86.2757 14.7157 86.4487 15.0158C87.0476 16.0564 86.218 16.6816 85.1682 17.4728L85.1618 17.4776C84.6023 17.8998 83.819 18.4695 82.8729 19.151C85.3602 17.6913 86.7233 16.913 87.527 16.5061L87.8169 18.5102C87.8728 18.9018 87.9847 19.2782 88.1322 19.6343C88.1068 19.6546 88.0814 19.6749 88.0559 19.7004C87.2065 20.4582 85.9858 21.506 84.3378 22.9099C81.9116 24.9749 78.9005 27.5029 76.0165 29.9189C76.6016 29.5732 77.1797 29.2302 77.7458 28.8944C78.2624 28.588 78.769 28.2875 79.2616 27.9963C85.6908 24.1764 88.5188 22.4979 89.887 21.7909L92.0386 23.4897C91.7232 23.8559 91.2298 24.2578 90.5483 24.8122C89.6582 25.5395 88.3815 26.5466 86.8759 27.7318C85.1729 29.0688 83.1795 30.6213 81.1115 32.2318L80.8486 32.4367C92.7995 25.4085 92.8727 25.4276 93.554 25.6056C93.5736 25.6095 93.5905 25.6165 93.6088 25.6242C93.6142 25.6264 93.6197 25.6288 93.6255 25.6311C93.9053 26.3991 93.9816 27.2282 93.8493 28.0268C93.7222 28.1387 93.5848 28.2506 93.4373 28.3574C93.4678 28.3625 93.4984 28.3676 93.5289 28.3777Z" fill="url(#paint1_linear_438_1698)"/>
<defs>
<linearGradient id="paint0_linear_438_1698" x1="76.2556" y1="-0.355193" x2="76.1559" y2="42.3582" gradientUnits="userSpaceOnUse">
<stop stop-color="#FF7A00"/>
<stop offset="0.94" stop-color="#FFC700"/>
</linearGradient>
<linearGradient id="paint1_linear_438_1698" x1="76.2556" y1="-0.355193" x2="76.1559" y2="42.3582" gradientUnits="userSpaceOnUse">
<stop stop-color="#FF7A00"/>
<stop offset="0.94" stop-color="#FFC700"/>
</linearGradient>
</defs>
</svg>
