<svg width="300" height="45" viewBox="0 0 300 45" fill="none" xmlns="http://www.w3.org/2000/svg">
<path d="M21.1808 44.0775C17.9705 44.0775 15.0738 43.524 12.4908 42.3985C9.90775 41.2731 7.67528 39.7601 5.81181 37.8413C3.94834 35.9225 2.50923 33.69 1.51292 31.1624C0.498155 28.6347 0 25.941 0 23.1181C0 20.2952 0.516605 17.4908 1.56827 14.9262C2.61993 12.3801 4.05904 10.1661 5.90406 8.28413C7.74908 6.40221 9.94465 4.90775 12.4908 3.81919C15.0369 2.73063 17.8229 2.17712 20.8487 2.17712C22.9705 2.17712 24.9631 2.43542 26.8266 2.95203C28.69 3.46863 30.4059 4.18819 31.9926 5.1107C33.5793 6.03321 34.9815 7.12177 36.2362 8.41328C37.4908 9.7048 38.5424 11.107 39.3911 12.6384L32.6937 16.6605C31.4207 14.3173 29.8155 12.5461 27.8598 11.3469C25.9041 10.1476 23.5793 9.55719 20.9041 9.55719C19.0037 9.55719 17.2509 9.9262 15.6273 10.6458C14.0037 11.3653 12.583 12.3432 11.3838 13.5793C10.1661 14.8155 9.22509 16.2362 8.56089 17.8782C7.89668 19.5203 7.56458 21.2731 7.56458 23.1365C7.56458 25 7.89668 26.8081 8.56089 28.4502C9.22509 30.0923 10.1661 31.5314 11.3838 32.7491C12.6015 33.9852 14.0406 34.9446 15.7196 35.6458C17.3985 36.3469 19.2251 36.7159 21.1993 36.7159C24.2435 36.7159 26.7897 35.9225 28.8192 34.3173C30.8487 32.7122 32.2325 30.572 32.9889 27.8967H19.9631V20.6273H41.1439V23.6531C41.1439 26.4022 40.6827 29.0221 39.7417 31.4945C38.8192 33.9668 37.4723 36.1439 35.7565 38.0074C34.0221 39.8708 31.9373 41.3469 29.4649 42.4539C27.0111 43.5424 24.2435 44.0959 21.1993 44.0959L21.1808 44.0775Z" fill="black"/>
<path d="M46.1993 2.17712H53.8007V43.524H46.1993V2.17712Z" fill="black"/>
<path d="M95.0184 10.8303H102.731L109.945 33.3395L118.155 10.8303H125.646L133.69 33.3948L141.181 10.8303H148.838L137.38 43.5055H130.111L121.845 20.8856L113.358 43.5055H105.923L95.0184 10.8303Z" fill="black"/>
<path d="M162.399 9.98155V2.73063H191.845V10H180.904V43.524H173.303V9.98155H162.399Z" fill="black"/>
<path d="M203.782 44.1882C201.808 44.1882 199.871 43.8007 197.952 43.0443C196.033 42.2878 194.317 41.1808 192.786 39.7232C191.255 38.2657 190.037 36.4945 189.096 34.3911C188.155 32.2878 187.694 29.8893 187.694 27.214C187.694 24.5387 188.155 22.0849 189.059 19.9815C189.963 17.8782 191.181 16.107 192.694 14.6494C194.207 13.1919 195.923 12.0849 197.86 11.3284C199.797 10.572 201.808 10.1845 203.893 10.1845C205.978 10.1845 208.044 10.5904 209.871 11.4207C211.697 12.2325 213.21 13.3579 214.391 14.7786V10.8672H221.937V43.5424H214.391V39.2989C213.192 40.8303 211.679 42.0295 209.815 42.8967C207.952 43.7638 205.941 44.2066 203.782 44.2066V44.1882ZM205.018 37.2509C206.402 37.2509 207.694 36.9926 208.893 36.476C210.111 35.9594 211.144 35.2214 211.993 34.2989C212.841 33.3764 213.524 32.2878 214.041 31.0517C214.539 29.8155 214.797 28.5055 214.797 27.0849C214.797 25.6642 214.539 24.4096 214.041 23.1734C213.542 21.9373 212.86 20.8672 211.993 19.9631C211.144 19.059 210.111 18.3395 208.893 17.8044C207.675 17.2878 206.384 17.0295 205.018 17.0295C203.653 17.0295 202.306 17.2878 201.107 17.8044C199.908 18.321 198.875 19.0406 197.97 19.9262C197.085 20.8118 196.384 21.8819 195.867 23.1181C195.351 24.3542 195.111 25.6642 195.111 27.0849C195.111 28.5055 195.369 29.8339 195.867 31.0701C196.365 32.3247 197.066 33.3948 197.97 34.3173C198.856 35.2214 199.908 35.941 201.107 36.476C202.306 36.9926 203.598 37.2509 205.018 37.2509Z" fill="black"/>
<path d="M226.255 2.17712H233.856V43.524H226.255V2.17712Z" fill="black"/>
<path d="M254.41 44.1882C251.845 44.1882 249.502 43.7454 247.362 42.8782C245.221 42.0111 243.413 40.7934 241.919 39.2804C240.406 37.7491 239.244 35.9594 238.395 33.893C237.546 31.8266 237.14 29.6125 237.14 27.2694C237.14 24.9262 237.583 22.6568 238.45 20.572C239.317 18.4871 240.535 16.679 242.048 15.1476C243.579 13.6162 245.369 12.417 247.435 11.5129C249.502 10.6089 251.734 10.1661 254.114 10.1661C256.494 10.1661 258.782 10.5904 260.849 11.4207C262.915 12.2509 264.686 13.4317 266.181 14.9446C267.675 16.4576 268.838 18.2288 269.668 20.2768C270.498 22.3247 270.922 24.5572 270.922 26.9742V29.8155H244.336C244.852 32.1218 245.996 33.9852 247.749 35.4059C249.502 36.8266 251.716 37.5277 254.391 37.5277C256.513 37.5277 258.358 37.0111 259.926 35.9594C261.494 34.9262 262.657 33.524 263.45 31.7712L269.649 35.3506C268.229 37.9889 266.255 40.1291 263.708 41.7528C261.162 43.3764 258.063 44.1882 254.41 44.1882ZM254.133 16.8081C251.863 16.8081 249.889 17.417 248.247 18.6531C246.605 19.8893 245.424 21.4945 244.76 23.5055H263.303C262.749 21.31 261.66 19.6494 260.055 18.5055C258.45 17.3616 256.476 16.8081 254.133 16.8081Z" fill="black"/>
<path d="M286.587 44.1882C282.97 44.1882 279.982 43.5055 277.601 42.1402C275.221 40.7749 273.376 38.8192 272.066 36.2546L279.059 32.8967C279.834 34.428 280.904 35.5904 282.251 36.4207C283.598 37.2325 285.148 37.6568 286.937 37.6568C288.727 37.6568 290.203 37.2694 291.125 36.476C292.048 35.7011 292.528 34.7601 292.528 33.69C292.528 33.0996 292.306 32.6015 291.882 32.2325C291.458 31.8635 290.886 31.5314 290.203 31.2546C289.52 30.9779 288.708 30.738 287.768 30.5535C286.845 30.369 285.867 30.166 284.871 29.9446C283.45 29.6863 282.066 29.3358 280.701 28.9114C279.336 28.4871 278.118 27.8967 277.048 27.1771C275.959 26.4576 275.092 25.5166 274.428 24.3911C273.764 23.2472 273.413 21.8266 273.413 20.1107C273.413 18.8007 273.708 17.5461 274.299 16.3469C274.889 15.1476 275.756 14.059 276.863 13.1365C277.989 12.214 279.336 11.476 280.904 10.9225C282.491 10.3875 284.262 10.1107 286.236 10.1107C289.52 10.1107 292.251 10.7196 294.428 11.9188C296.605 13.1365 298.321 14.7786 299.594 16.8635L293.173 20.1107C292.509 18.9483 291.568 18.0443 290.387 17.3801C289.207 16.7159 287.823 16.3653 286.255 16.3653C284.465 16.3653 283.137 16.7159 282.288 17.4354C281.439 18.1365 280.996 18.9668 280.996 19.8893C280.996 20.9779 281.624 21.7343 282.897 22.214C284.17 22.6753 286.033 23.1734 288.487 23.69C289.834 23.9852 291.181 24.3358 292.546 24.7601C293.911 25.1661 295.148 25.738 296.255 26.4576C297.38 27.1771 298.284 28.1181 298.967 29.2435C299.649 30.3875 300 31.8081 300 33.524C300 34.6863 299.742 35.8856 299.225 37.1218C298.708 38.3764 297.897 39.5203 296.79 40.5904C295.683 41.6605 294.299 42.5092 292.62 43.1919C290.941 43.8561 288.93 44.2066 286.587 44.2066V44.1882Z" fill="black"/>
<path d="M92.1218 30.8672L89.5572 32.8967C88.6162 33.6347 87.9889 34.7232 87.8229 35.9225L87.3432 39.1697C86.9004 42.1771 83.7638 43.9852 80.941 42.8598L77.8967 41.6421C76.7712 41.1993 75.5351 41.1993 74.4096 41.6421L71.3653 42.8598C68.5424 43.9852 65.4059 42.1771 64.9631 39.1697L64.4834 35.9225C64.3173 34.7232 63.69 33.6531 62.7491 32.8967L60.1845 30.8672C57.8044 28.9852 57.8044 25.369 60.1845 23.4871L62.7491 21.4576C63.69 20.7196 64.3173 19.631 64.4834 18.4317L64.9631 15.1845C65.4059 12.1771 68.5424 10.369 71.3653 11.4945L74.4096 12.7122C75.5351 13.155 76.7712 13.155 77.8967 12.7122L80.941 11.4945C83.7638 10.369 86.9004 12.1771 87.3432 15.1845L87.8229 18.4317C87.9889 19.631 88.6162 20.7011 89.5572 21.4576L92.1218 23.4871C94.5018 25.369 94.5018 28.9852 92.1218 30.8672Z" fill="black"/>
<path d="M76.0886 8.37638C78.4016 8.37638 80.2767 6.50127 80.2767 4.18819C80.2767 1.87512 78.4016 0 76.0886 0C73.7755 0 71.9004 1.87512 71.9004 4.18819C71.9004 6.50127 73.7755 8.37638 76.0886 8.37638Z" fill="black"/>
</svg>
