<svg width="512" height="513" viewBox="0 0 512 513" fill="none" xmlns="http://www.w3.org/2000/svg">
<rect width="512" height="512" transform="translate(0 0.0771484)" fill="#FFE249"/>
<path d="M363.136 317.841L345.93 331.365C339.617 336.283 335.408 343.537 334.294 351.529L331.076 373.168C328.105 393.208 307.061 405.257 288.122 397.757L267.698 389.643C260.147 386.692 251.853 386.692 244.302 389.643L223.878 397.757C204.939 405.257 183.895 393.208 180.924 373.168L177.706 351.529C176.592 343.537 172.383 336.406 166.07 331.365L148.864 317.841C132.896 305.3 132.896 281.202 148.864 268.662L166.07 255.137C172.383 250.22 176.592 242.966 177.706 234.974L180.924 213.335C183.895 193.295 204.939 181.246 223.878 188.745L244.302 196.86C251.853 199.811 260.147 199.811 267.698 196.86L288.122 188.745C307.061 181.246 328.105 193.295 331.076 213.335L334.294 234.974C335.408 242.966 339.617 250.097 345.93 255.137L363.136 268.662C379.104 281.202 379.104 305.3 363.136 317.841Z" fill="#222222"/>
<path d="M255.565 167.968C271.084 167.968 283.664 155.473 283.664 140.059C283.664 124.645 271.084 112.15 255.565 112.15C240.047 112.15 227.466 124.645 227.466 140.059C227.466 155.473 240.047 167.968 255.565 167.968Z" fill="#222222"/>
</svg>
